<?xml version="1.0" standalone="no"?>
<!DOCTYPE svg PUBLIC "-//W3C//DTD SVG 20010904//EN"
 "http://www.w3.org/TR/2001/REC-SVG-20010904/DTD/svg10.dtd">
<svg version="1.0" xmlns="http://www.w3.org/2000/svg"
 width="676.000000pt" height="672.000000pt" viewBox="0 0 676.000000 672.000000"
 preserveAspectRatio="xMidYMid meet">

<g transform="translate(0.000000,672.000000) scale(0.100000,-0.100000)"
fill="#fff" stroke="#fff">
<path d="M0 3360 l0 -3360 3380 0 3380 0 0 3360 0 3360 -3380 0 -3380 0 0
-3360z m2750 1065 c0 -294 -1 -535 -2 -535 -2 0 -147 44 -323 98 l-320 98 -3
437 -2 437 325 0 325 0 0 -535z m948 -1382 l-3 -1918 -322 -3 -323 -2 0 1920
0 1920 325 0 325 0 -2 -1917z m942 1097 c0 -451 -4 -820 -8 -820 -5 0 -125 35
-268 79 -142 43 -285 84 -316 91 l-58 13 0 729 0 728 325 0 325 0 0 -820z
m-2515 -369 l620 -189 3 -346 c1 -190 1 -346 0 -346 -2 0 -282 85 -623 189
l-620 188 -3 347 c-1 190 -1 346 0 346 2 0 282 -85 623 -189z m2524 -767 c333
-101 606 -184 608 -184 2 0 3 -155 3 -345 0 -190 -3 -345 -7 -345 -4 0 -171
50 -372 111 -202 61 -481 146 -621 189 l-255 77 -3 347 -2 347 22 -7 c13 -4
295 -90 627 -190z m-2279 -308 c227 -69 278 -83 353 -100 l27 -6 0 -735 0
-735 -322 2 -323 3 -3 823 c-2 641 1 822 10 822 7 0 123 -33 258 -74z m1963
-597 l307 -93 -2 -441 -3 -440 -320 0 -320 0 -3 539 c-2 510 -1 538 15 534 10
-3 156 -47 326 -99z"/>
</g>
</svg>
